<mxfile host="Electron" agent="Mozilla/5.0 (Windows NT 10.0; Win64; x64) AppleWebKit/537.36 (KHTML, like Gecko) draw.io/25.0.2 Chrome/128.0.6613.186 Electron/32.2.5 Safari/537.36" version="25.0.2">
  <diagram name="Page-1" id="fda-Ko81riKUM5XrKXNq">
    <mxGraphModel dx="2058" dy="702" grid="1" gridSize="10" guides="1" tooltips="1" connect="1" arrows="1" fold="1" page="1" pageScale="1" pageWidth="850" pageHeight="1100" math="0" shadow="0">
      <root>
        <mxCell id="0" />
        <mxCell id="1" parent="0" />
        <mxCell id="754rNB4h29KkViIgwOQ6-8" style="edgeStyle=orthogonalEdgeStyle;rounded=0;orthogonalLoop=1;jettySize=auto;html=1;exitX=1;exitY=0.5;exitDx=0;exitDy=0;" edge="1" parent="1" source="754rNB4h29KkViIgwOQ6-1" target="754rNB4h29KkViIgwOQ6-4">
          <mxGeometry relative="1" as="geometry" />
        </mxCell>
        <mxCell id="754rNB4h29KkViIgwOQ6-9" style="edgeStyle=orthogonalEdgeStyle;rounded=0;orthogonalLoop=1;jettySize=auto;html=1;exitX=1;exitY=0.5;exitDx=0;exitDy=0;entryX=0;entryY=0.5;entryDx=0;entryDy=0;curved=1;" edge="1" parent="1" source="754rNB4h29KkViIgwOQ6-1" target="754rNB4h29KkViIgwOQ6-3">
          <mxGeometry relative="1" as="geometry" />
        </mxCell>
        <mxCell id="754rNB4h29KkViIgwOQ6-10" style="edgeStyle=orthogonalEdgeStyle;rounded=0;orthogonalLoop=1;jettySize=auto;html=1;exitX=1;exitY=0.5;exitDx=0;exitDy=0;entryX=0;entryY=0.5;entryDx=0;entryDy=0;curved=1;" edge="1" parent="1" source="754rNB4h29KkViIgwOQ6-1" target="754rNB4h29KkViIgwOQ6-2">
          <mxGeometry relative="1" as="geometry" />
        </mxCell>
        <mxCell id="754rNB4h29KkViIgwOQ6-11" style="edgeStyle=orthogonalEdgeStyle;rounded=0;orthogonalLoop=1;jettySize=auto;html=1;exitX=1;exitY=0.5;exitDx=0;exitDy=0;entryX=0;entryY=0.5;entryDx=0;entryDy=0;curved=1;" edge="1" parent="1" source="754rNB4h29KkViIgwOQ6-1" target="754rNB4h29KkViIgwOQ6-5">
          <mxGeometry relative="1" as="geometry" />
        </mxCell>
        <mxCell id="754rNB4h29KkViIgwOQ6-12" style="edgeStyle=orthogonalEdgeStyle;rounded=0;orthogonalLoop=1;jettySize=auto;html=1;exitX=1;exitY=0.5;exitDx=0;exitDy=0;entryX=0;entryY=0.5;entryDx=0;entryDy=0;curved=1;" edge="1" parent="1" source="754rNB4h29KkViIgwOQ6-1" target="754rNB4h29KkViIgwOQ6-7">
          <mxGeometry relative="1" as="geometry" />
        </mxCell>
        <mxCell id="754rNB4h29KkViIgwOQ6-1" value="&lt;b&gt;深度学习&lt;/b&gt;" style="rounded=1;whiteSpace=wrap;html=1;fillColor=#dae8fc;strokeColor=#6c8ebf;" vertex="1" parent="1">
          <mxGeometry x="80" y="280" width="120" height="40" as="geometry" />
        </mxCell>
        <mxCell id="754rNB4h29KkViIgwOQ6-2" value="&lt;b&gt;卷积神经网络(CNN)&lt;/b&gt;" style="rounded=1;whiteSpace=wrap;html=1;fillColor=#d5e8d4;strokeColor=#82b366;" vertex="1" parent="1">
          <mxGeometry x="280" y="120" width="130" height="40" as="geometry" />
        </mxCell>
        <mxCell id="754rNB4h29KkViIgwOQ6-14" style="edgeStyle=orthogonalEdgeStyle;rounded=0;orthogonalLoop=1;jettySize=auto;html=1;exitX=1;exitY=0.5;exitDx=0;exitDy=0;" edge="1" parent="1" source="754rNB4h29KkViIgwOQ6-3" target="754rNB4h29KkViIgwOQ6-6">
          <mxGeometry relative="1" as="geometry" />
        </mxCell>
        <mxCell id="754rNB4h29KkViIgwOQ6-3" value="&lt;b&gt;循环神经网络(RNN)&lt;/b&gt;" style="rounded=1;whiteSpace=wrap;html=1;fillColor=#e1d5e7;strokeColor=#9673a6;" vertex="1" parent="1">
          <mxGeometry x="280" y="200" width="130" height="40" as="geometry" />
        </mxCell>
        <mxCell id="754rNB4h29KkViIgwOQ6-4" value="&lt;b&gt;生成对抗网络(GAN)&lt;/b&gt;" style="rounded=1;whiteSpace=wrap;html=1;fillColor=#fff2cc;strokeColor=#d6b656;" vertex="1" parent="1">
          <mxGeometry x="280" y="280" width="130" height="40" as="geometry" />
        </mxCell>
        <mxCell id="754rNB4h29KkViIgwOQ6-5" value="&lt;b&gt;深度强化学习(RL)&lt;/b&gt;" style="rounded=1;whiteSpace=wrap;html=1;fillColor=#ffe6cc;strokeColor=#d79b00;" vertex="1" parent="1">
          <mxGeometry x="280" y="360" width="130" height="40" as="geometry" />
        </mxCell>
        <mxCell id="754rNB4h29KkViIgwOQ6-6" value="长短期记忆(LSTM)" style="rounded=1;whiteSpace=wrap;html=1;fillColor=#e1d5e7;strokeColor=#9673a6;fontStyle=1" vertex="1" parent="1">
          <mxGeometry x="480" y="200" width="120" height="40" as="geometry" />
        </mxCell>
        <mxCell id="754rNB4h29KkViIgwOQ6-15" style="edgeStyle=orthogonalEdgeStyle;rounded=0;orthogonalLoop=1;jettySize=auto;html=1;exitX=1;exitY=0.5;exitDx=0;exitDy=0;" edge="1" parent="1" source="754rNB4h29KkViIgwOQ6-7" target="754rNB4h29KkViIgwOQ6-13">
          <mxGeometry relative="1" as="geometry" />
        </mxCell>
        <mxCell id="754rNB4h29KkViIgwOQ6-7" value="&lt;b&gt;大模型(Transformer)&lt;/b&gt;" style="rounded=1;whiteSpace=wrap;html=1;fillColor=#f8cecc;strokeColor=#b85450;" vertex="1" parent="1">
          <mxGeometry x="280" y="440" width="130" height="40" as="geometry" />
        </mxCell>
        <mxCell id="754rNB4h29KkViIgwOQ6-13" value="&lt;b&gt;GPT&lt;/b&gt;" style="rounded=1;whiteSpace=wrap;html=1;fillColor=#f8cecc;strokeColor=#b85450;" vertex="1" parent="1">
          <mxGeometry x="480" y="440" width="120" height="40" as="geometry" />
        </mxCell>
        <mxCell id="754rNB4h29KkViIgwOQ6-16" value="计算机视觉、视频分析、图像生成" style="text;html=1;align=center;verticalAlign=middle;whiteSpace=wrap;rounded=0;fontStyle=1" vertex="1" parent="1">
          <mxGeometry x="410" y="125" width="210" height="30" as="geometry" />
        </mxCell>
        <mxCell id="754rNB4h29KkViIgwOQ6-17" value="游戏、机器人控制、自动驾驶" style="text;html=1;align=center;verticalAlign=middle;whiteSpace=wrap;rounded=0;fontStyle=1" vertex="1" parent="1">
          <mxGeometry x="400" y="365" width="210" height="30" as="geometry" />
        </mxCell>
        <mxCell id="754rNB4h29KkViIgwOQ6-18" value="自然语言处理、计算机视觉、音频处理、多模态学习" style="text;html=1;align=center;verticalAlign=middle;whiteSpace=wrap;rounded=0;fontStyle=1" vertex="1" parent="1">
          <mxGeometry x="620" y="445" width="280" height="30" as="geometry" />
        </mxCell>
        <mxCell id="754rNB4h29KkViIgwOQ6-19" value="图形生成、视频生成、数据增强、艺术创作" style="text;html=1;align=center;verticalAlign=middle;whiteSpace=wrap;rounded=0;fontStyle=1" vertex="1" parent="1">
          <mxGeometry x="422.5" y="285" width="235" height="30" as="geometry" />
        </mxCell>
        <mxCell id="754rNB4h29KkViIgwOQ6-20" value="自然语言处理、时间序列预测、语音处理" style="text;html=1;align=center;verticalAlign=middle;whiteSpace=wrap;rounded=0;fontStyle=1" vertex="1" parent="1">
          <mxGeometry x="620" y="205" width="235" height="30" as="geometry" />
        </mxCell>
        <mxCell id="754rNB4h29KkViIgwOQ6-22" style="edgeStyle=orthogonalEdgeStyle;rounded=0;orthogonalLoop=1;jettySize=auto;html=1;exitX=1;exitY=0.5;exitDx=0;exitDy=0;" edge="1" parent="1" source="754rNB4h29KkViIgwOQ6-21" target="754rNB4h29KkViIgwOQ6-1">
          <mxGeometry relative="1" as="geometry" />
        </mxCell>
        <mxCell id="754rNB4h29KkViIgwOQ6-21" value="&lt;b&gt;神经网络&lt;/b&gt;" style="rounded=1;whiteSpace=wrap;html=1;fillColor=#dae8fc;strokeColor=#6c8ebf;" vertex="1" parent="1">
          <mxGeometry x="-120" y="280" width="120" height="40" as="geometry" />
        </mxCell>
      </root>
    </mxGraphModel>
  </diagram>
</mxfile>
